<?xml version="1.0" encoding="UTF-8" standalone="no"?>
<!-- Created with Inkscape (http://www.inkscape.org/) -->

<svg
   width="2560"
   height="1280"
   viewBox="0 0 677.33331 338.66667"
   version="1.1"
   id="svg1"
   inkscape:version="1.4.2 (f4327f4, 2025-05-13)"
   sodipodi:docname="featured-image.svg"
   inkscape:export-filename="featured-image.png"
   inkscape:export-xdpi="96"
   inkscape:export-ydpi="96"
   xmlns:inkscape="http://www.inkscape.org/namespaces/inkscape"
   xmlns:sodipodi="http://sodipodi.sourceforge.net/DTD/sodipodi-0.dtd"
   xmlns="http://www.w3.org/2000/svg"
   xmlns:svg="http://www.w3.org/2000/svg">
   <sodipodi:namedview
      id="namedview1"
      pagecolor="#ffffff"
      bordercolor="#000000"
      borderopacity="0.25"
      inkscape:showpageshadow="2"
      inkscape:pageopacity="0.0"
      inkscape:pagecheckerboard="0"
      inkscape:deskcolor="#d1d1d1"
      inkscape:document-units="mm"
      inkscape:zoom="0.35945918"
      inkscape:cx="1276.9183"
      inkscape:cy="791.46679"
      inkscape:window-width="1920"
      inkscape:window-height="1009"
      inkscape:window-x="-8"
      inkscape:window-y="-8"
      inkscape:window-maximized="1"
      inkscape:current-layer="svg1" />
   <defs
      id="defs1" />
   <rect
      style="fill:#d7f4d7;stroke-width:1.85208"
      id="rect1"
      width="677.33331"
      height="338.66666"
      x="1.0172526e-05"
      y="5.0862632e-06" />
   <g
      id="g1"
      transform="translate(0,-4.8105139)">
      <g
         transform="matrix(1.8735476,0,0,1.8735476,598.95564,171.16485)"
         fill="#0078d4"
         id="g11"
         style="display:inline;stroke-width:0.533754">
         <path
            d="m -175.67,61.464 h -6.0157 l -5.8658,-22.328 -5.9304,22.328 h -6.1486 l -8.0653,-29.022 h 5.4563 l 5.8161,23.085 6.3496,-23.085 h 5.5112 l 5.9683,23.222 5.5238,-23.222 h 5.2685 z"
            id="path1"
            style="stroke-width:0.533754" />
         <path
            d="m -160.09,34.565 c 0,0.7846 -0.28906,1.4384 -0.86717,1.9615 -0.56435,0.52306 -1.2526,0.78459 -2.0647,0.78459 -0.81212,0 -1.5004,-0.26156 -2.0647,-0.78459 -0.56435,-0.52307 -0.84652,-1.1769 -0.84652,-1.9615 0,-0.79834 0.28217,-1.4659 0.84652,-2.0028 0.57812,-0.53682 1.2664,-0.80524 2.0647,-0.80524 0.83965,0 1.5348,0.27534 2.0854,0.82588 0.56434,0.55062 0.84652,1.2113 0.84652,1.9821 z m -5.442,26.898 V 40.548 h 4.876 v 20.915 z"
            id="path2"
            style="stroke-width:0.533754" />
         <path
            d="M -141.89,61.464 V 49.819 c 0,-3.0511 -0.94643,-5.6831 -4.0201,-5.6831 -3.0577,0 -4.9966,2.7533 -4.9966,5.5386 v 11.789 h -4.7695 v -20.915 h 4.7695 v 2.9584 h 0.0826 c 1.5829,-2.4506 3.8679,-3.3111 6.8548,-3.3111 2.2436,0 3.978,0.55225 5.203,1.9838 1.2388,1.4315 1.7827,3.6063 1.7827,6.5245 v 12.759 z"
            id="path3"
            style="stroke-width:0.533754" />
         <path
            d="m -117.94,61.464 v -2.6924 h -0.0826 c -1.5141,2.5465 -4.6048,3.1336 -6.7596,3.1336 -6.4042,0 -8.7543,-4.9749 -8.7543,-10.269 0,-3.51 0.87406,-6.318 2.6222,-8.424 1.7619,-2.1198 4.1156,-3.0373 7.0613,-3.0373 4.5855,0 5.8305,2.5513 5.8305,2.5513 h 0.0826 v -12.104 h 4.9473 v 30.842 z m 0.0413,-11.918 c 0,-2.5265 -1.6236,-5.397 -5.0504,-5.397 -3.92,0 -5.4434,3.4113 -5.4434,7.343 0,3.4326 1.4375,6.548 5.1705,6.5997 3.6604,0 5.2936,-3.4887 5.3233,-6.3726 z"
            id="path4"
            style="stroke-width:0.533754" />
         <path
            d="m -88.034,50.914 c 0,7.2446 -4.3298,11.169 -10.832,11.169 -7.0707,0 -10.695,-4.2328 -10.695,-10.715 0,-7.4157 4.3429,-11.273 11.211,-11.273 6.2932,0 10.316,4.0228 10.316,10.819 z m -5.0794,0.1651 c 0,-3.2231 -1.1425,-6.8059 -5.5051,-6.8059 -4.1842,0 -5.8097,3.1138 -5.8097,6.9298 0,4.1456 1.9524,6.7824 5.7799,6.7824 4.1005,0 5.5051,-3.1471 5.535,-6.9063 z"
            id="path5"
            style="stroke-width:0.533754" />
         <path
            d="m -61.864,61.464 h -5.3811 l -4.1133,-15.137 -4.4127,15.137 h -5.223 l -6.0846,-20.851 h 5.1062 l 3.9735,16.199 4.6441,-16.199 h 4.7894 l 4.1408,16.157 3.8735,-16.157 h 4.6797 z"
            id="path6"
            style="stroke-width:0.533754" />
         <path
            d="m -40.555,55.642 c 0,4.6565 -4.2225,6.4714 -8.4554,6.4714 -2.7569,0 -5.5019,-1.0619 -5.5019,-1.0619 v -4.9529 c 0,0 2.3861,2.0793 5.7192,2.1052 2.2849,0 3.3142,-0.72057 3.3142,-2.0924 0.05644,-1.1006 -0.61364,-1.7075 -1.4147,-2.1625 -0.55059,-0.33035 -1.4109,-0.73641 -2.5809,-1.2182 -1.3765,-0.59187 -2.4019,-1.1631 -3.0764,-1.7137 -0.6607,-0.55058 -1.1562,-1.1975 -1.4866,-1.9408 -0.31658,-0.74329 -0.55035,-1.5601 -0.55035,-2.5512 0,-3.76 3.1359,-6.4167 8.1485,-6.4167 3.313,0 4.7488,0.81239 4.7488,0.81239 v 4.7052 c 0,0 -2.3545,-1.6272 -4.8008,-1.642 -1.7529,0 -3.0784,0.6382 -3.1016,2.0825 -0.01235,1.8616 2.2673,2.769 3.6284,3.3197 1.9821,0.79835 3.4326,1.6506 4.2447,2.6279 0.81212,0.9773 1.1648,1.9614 1.1648,3.6282 z"
            id="path7"
            style="stroke-width:0.533754" />
         <path
            d="m -21.371,31.596 v 29.868 h -4.9894 V 37.639 c 0,0 -1.7107,1.5803 -6.1015,2.7254 v -4.2516 c 6.5257,-2.4134 8.8682,-4.5165 8.8682,-4.5165 z"
            id="path8"
            style="stroke-width:0.533754" />
         <rect
            x="-271.22"
            y="22.579"
            width="23.105"
            height="23.105"
            id="rect8"
            style="stroke-width:0.533754" />
         <rect
            x="-245.58"
            y="22.579"
            width="23.105"
            height="23.105"
            id="rect9"
            style="stroke-width:0.533754" />
         <rect
            x="-271.22"
            y="48.221001"
            width="23.105"
            height="23.105"
            id="rect10"
            style="stroke-width:0.533754" />
         <rect
            x="-245.58"
            y="48.221001"
            width="23.105"
            height="23.105"
            id="rect11"
            style="stroke-width:0.533754" />
         <path
            d="m -6.6368,31.596 v 29.868 h -4.9894 V 37.639 c 0,0 -1.7107,1.5803 -6.1015,2.7254 v -4.2516 c 6.5257,-2.4134 8.8682,-4.5165 8.8682,-4.5165 z"
            id="path11"
            style="stroke-width:0.533754" />
      </g>
      <g
         id="g2"
         transform="matrix(0.39684402,0,0,0.39684402,237.0746,43.490188)"
         style="stroke-width:0.666719"
         inkscape:label="g2">
         <path
            id="path19"
            class="st0"
            d="M 330.6,0 279.4,176.3 H 512 V 63.3 C 512,44.6 504,27.7 491.2,16.2 485.8,11.3 479.7,7.4 473.1,4.7 465.7,1.6 457,0 449,0 Z m 45,60 h 74.2 c 1.3,0 2.4,1.1 2.4,2.4 0,0 0,0 0,0 v 54 h -92.9 z"
            style="fill:#f29111;stroke-width:0.666719" />

         <path
            id="path17"
            class="st1"
            d="m 0,0 110.6,389.9 c 2.8,9.7 5.3,14.8 9,20.2 1.3,2 2.8,3.8 4.3,5.6 3.7,4.4 7.9,8.1 12.6,11.2 5.2,3.5 10.4,6.1 16.3,8 6.9,2.2 13,2.9 21.2,2.9 h 92.3 l 40.9,-141.4 h 145 v 79 c 0,1.3 -1.1,2.4 -2.4,2.4 v 0 H 345.7 l -17.4,60 h 120.6 c 16.4,0 30.6,-5.8 41.6,-15.5 13.2,-11.6 21.5,-28 21.5,-47.7 V 236.4 H 262 L 221.1,377.8 H 169.4 L 79.3,60 h 62.3 l 33,116.3 h 62.2 L 186.8,0 Z"
            style="fill:#00758a;stroke-width:0.666719" />

      </g>
   </g>
</svg>
