<?xml version="1.0" encoding="UTF-8" standalone="no"?>
<svg
   viewBox="0 0 128 128"
   version="1.1"
   id="svg2"
   sodipodi:docname="bash-original.svg"
   inkscape:version="1.4.2 (f4327f4, 2025-05-13)"
   xmlns:inkscape="http://www.inkscape.org/namespaces/inkscape"
   xmlns:sodipodi="http://sodipodi.sourceforge.net/DTD/sodipodi-0.dtd"
   xmlns="http://www.w3.org/2000/svg"
   xmlns:svg="http://www.w3.org/2000/svg">
  <defs
     id="defs2" />
  <sodipodi:namedview
     id="namedview2"
     pagecolor="#ffffff"
     bordercolor="#000000"
     borderopacity="0.25"
     inkscape:showpageshadow="2"
     inkscape:pageopacity="0.0"
     inkscape:pagecheckerboard="0"
     inkscape:deskcolor="#d1d1d1"
     showgrid="false"
     inkscape:zoom="6.3046875"
     inkscape:cx="63.920694"
     inkscape:cy="64"
     inkscape:window-width="1920"
     inkscape:window-height="1009"
     inkscape:window-x="-8"
     inkscape:window-y="-8"
     inkscape:window-maximized="1"
     inkscape:current-layer="svg2" />
  <rect
     style="fill:#ffffff;fill-opacity:1;stroke:none;stroke-width:1"
     id="rect2"
     width="120"
     height="120"
     x="4"
     y="4"
     ry="60" />
  <g
     id="g2"
     transform="matrix(0.79890426,0,0,0.79890426,12.869728,12.870124)"
     style="stroke-width:1.25172">
    <path
       fill="#293138"
       d="M 112.205,26.129 71.8,2.142 A 15.326,15.326 0 0 0 64.005,0 C 61.317,0 58.619,0.717 56.209,2.152 L 15.795,26.14 C 10.976,28.999 8,34.289 8,40.018 v 47.975 c 0,5.729 2.967,11.019 7.796,13.878 L 56.2,125.858 a 15.193,15.193 0 0 0 7.795,2.142 15.32,15.32 0 0 0 7.796,-2.142 l 40.414,-23.987 c 4.819,-2.86 7.796,-8.16 7.796,-13.878 V 40.007 c 0,-5.718 -2.967,-11.019 -7.796,-13.878 z m -31.29,74.907 0.063,3.448 c 0,0.418 -0.267,0.889 -0.588,1.06 l -2.046,1.178 c -0.321,0.16 -0.6,-0.032 -0.6,-0.45 l -0.032,-3.394 c -1.745,0.728 -3.523,0.9 -4.647,0.45 -0.214,-0.086 -0.31,-0.397 -0.225,-0.76 l 0.739,-3.117 c 0.064,-0.246 0.193,-0.493 0.364,-0.643 a 0.726,0.726 0 0 1 0.193,-0.139 c 0.117,-0.064 0.235,-0.075 0.332,-0.032 1.22,0.407 2.773,0.214 4.272,-0.535 1.907,-0.964 3.18,-2.913 3.16,-4.84 -0.022,-1.757 -0.964,-2.474 -3.267,-2.496 -2.934,0.01 -5.675,-0.567 -5.718,-4.894 -0.032,-3.555 1.81,-7.26 4.744,-9.595 l -0.032,-3.48 c 0,-0.428 0.257,-0.9 0.589,-1.07 l 1.98,-1.264 c 0.322,-0.161 0.6,0.042 0.6,0.46 l 0.033,3.48 c 1.456,-0.578 2.72,-0.738 3.865,-0.47 0.247,0.063 0.364,0.406 0.257,0.802 l -0.77,3.084 a 1.372,1.372 0 0 1 -0.354,0.622 0.825,0.825 0 0 1 -0.203,0.15 c -0.108,0.053 -0.204,0.064 -0.3,0.053 -0.525,-0.118 -1.767,-0.385 -3.727,0.6 -2.056,1.038 -2.773,2.827 -2.763,4.155 0.022,1.585 0.825,2.066 3.63,2.11 3.738,0.063 5.344,1.691 5.387,5.45 0.053,3.684 -1.917,7.657 -4.937,10.077 z M 109.121,36.249 70.89,59.86 c -4.765,2.784 -8.278,5.911 -8.288,11.662 v 47.107 c 0,3.437 1.392,5.665 3.523,6.318 a 12.81,12.81 0 0 1 -2.12,0.204 c -2.239,0 -4.445,-0.61 -6.383,-1.757 L 17.219,99.408 C 13.268,97.063 10.816,92.683 10.816,87.982 V 40.007 c 0,-4.7 2.452,-9.08 6.403,-11.426 L 57.634,4.594 a 12.555,12.555 0 0 1 6.382,-1.756 c 2.238,0 4.444,0.61 6.382,1.756 l 40.415,23.987 c 3.33,1.981 5.579,5.397 6.21,9.242 -1.36,-2.86 -4.38,-3.63 -7.902,-1.574 z"
       id="path1"
       style="stroke-width:1.25172" />
    <path
       fill="#4fa847"
       d="m 101.614,92.619 -10.066,6.018 c -0.268,0.16 -0.46,0.332 -0.46,0.653 v 2.635 c 0,0.32 0.214,0.46 0.481,0.3 l 10.216,-6.212 c 0.268,-0.16 0.31,-0.45 0.31,-0.77 v -2.324 c 0,-0.322 -0.213,-0.45 -0.481,-0.3 z"
       id="path2"
       style="stroke-width:1.25172" />
  </g>
</svg>
