<?xml version="1.0" encoding="UTF-8" standalone="no"?>
<svg
   viewBox="0 0 128 128"
   version="1.1"
   id="svg1"
   sodipodi:docname="git-original.svg"
   inkscape:version="1.4.2 (f4327f4, 2025-05-13)"
   xmlns:inkscape="http://www.inkscape.org/namespaces/inkscape"
   xmlns:sodipodi="http://sodipodi.sourceforge.net/DTD/sodipodi-0.dtd"
   xmlns="http://www.w3.org/2000/svg"
   xmlns:svg="http://www.w3.org/2000/svg">
  <defs
     id="defs1" />
  <sodipodi:namedview
     id="namedview1"
     pagecolor="#ffffff"
     bordercolor="#000000"
     borderopacity="0.25"
     inkscape:showpageshadow="2"
     inkscape:pageopacity="0.0"
     inkscape:pagecheckerboard="0"
     inkscape:deskcolor="#d1d1d1"
     showgrid="false"
     inkscape:zoom="3.1523438"
     inkscape:cx="-14.592317"
     inkscape:cy="92.47088"
     inkscape:window-width="1920"
     inkscape:window-height="1009"
     inkscape:window-x="-8"
     inkscape:window-y="-8"
     inkscape:window-maximized="1"
     inkscape:current-layer="svg1" />
  <g
     id="g1">
    <rect
       style="fill:#ffffff;fill-opacity:1;stroke-width:1;stroke-opacity:0.350467"
       id="rect1"
       width="75.381828"
       height="93.988731"
       x="-37.687229"
       y="43.515305"
       transform="rotate(-44.997668)" />
    <path
       fill="#f34f29"
       d="M 124.73641,58.3775 69.620414,3.2635 c -3.172,-3.174 -8.32,-3.174 -11.497,0 l -11.444,11.446 14.518,14.518 c 3.375,-1.139 7.243,-0.375 9.932,2.314 2.703,2.706 3.461,6.607 2.294,9.993 l 13.992,13.993 c 3.385,-1.167 7.292,-0.413 9.994,2.295 3.779996,3.777 3.779996,9.9 0,13.679 a 9.673,9.673 0 0 1 -13.683,0 9.677,9.677 0 0 1 -2.105,-10.521 l -13.048,-13.048 -0.002,34.341 a 9.708,9.708 0 0 1 2.559,1.828 c 3.778,3.777 3.778,9.898 0,13.683 -3.779,3.777 -9.904,3.777 -13.679,0 -3.778,-3.784 -3.778,-9.905 0,-13.683 a 9.65,9.65 0 0 1 3.167,-2.11 v -34.659 a 9.581,9.581 0 0 1 -3.167,-2.111 c -2.862,-2.86 -3.551,-7.06 -2.083,-10.576 l -14.313,-14.313 -37.792,37.79 a 8.133,8.133 0 0 0 0,11.5 l 55.117,55.114 c 3.174,3.174 8.32,3.174 11.499,0 l 54.857996,-54.858 a 8.135,8.135 0 0 0 -10e-4,-11.501 z"
       id="path1" />
  </g>
</svg>
