<?xml version="1.0" encoding="UTF-8" standalone="no"?>
<svg
   viewBox="0 0 128 128"
   version="1.1"
   id="svg23"
   sodipodi:docname="podman-original.svg"
   inkscape:version="1.4.2 (f4327f4, 2025-05-13)"
   xmlns:inkscape="http://www.inkscape.org/namespaces/inkscape"
   xmlns:sodipodi="http://sodipodi.sourceforge.net/DTD/sodipodi-0.dtd"
   xmlns="http://www.w3.org/2000/svg"
   xmlns:svg="http://www.w3.org/2000/svg">
  <defs
     id="defs23" />
  <sodipodi:namedview
     id="namedview23"
     pagecolor="#ffffff"
     bordercolor="#000000"
     borderopacity="0.25"
     inkscape:showpageshadow="2"
     inkscape:pageopacity="0.0"
     inkscape:pagecheckerboard="0"
     inkscape:deskcolor="#d1d1d1"
     showgrid="false"
     inkscape:zoom="6.3046875"
     inkscape:cx="63.920694"
     inkscape:cy="64"
     inkscape:window-width="1920"
     inkscape:window-height="1009"
     inkscape:window-x="-8"
     inkscape:window-y="-8"
     inkscape:window-maximized="1"
     inkscape:current-layer="svg23" />
  <circle
     style="fill:#ffffff;fill-opacity:1;stroke:none;stroke-width:1"
     id="path24"
     cx="64"
     cy="64"
     r="60" />
  <g
     id="g23"
     transform="matrix(0.78688568,0,0,0.78688568,13.639228,15.639293)"
     style="stroke-width:1.27084">
    <path
       fill="#3c6eb4"
       d="m 93.188,59.803 c 0.148,0.927 0.3,1.854 0.482,2.76 h 8.955 v -2.76 z m 1.484,6.896 c 0.185,0.634 0.381,1.265 0.598,1.893 0.52,0.259 1.027,0.548 1.517,0.87 h 11.352 v -2.763 z m -18.431,1.282 c -0.426,0.155 -0.843,0.336 -1.252,0.533 v 0.004 c 0.41,-0.198 0.825,-0.382 1.252,-0.537 z m -41.248,34.57 v 2.76 H 68.15 v -2.76 z m 19.31,6.896 v 2.752 H 81.6 v -2.752 z"
       id="path1"
       style="stroke-width:1.27084" />
    <path
       fill="#cccccc"
       d="m 61.114,16.26 c -4.91,0 -9.721,0.567 -12.586,1.707 -7.89,2.888 -13.95,10.775 -15.746,20.33 -2.365,11.186 -2.224,19.941 -4.572,28.178 a 13.589,13.589 0 0 1 3.529,-1.94 c 1.834,-0.726 4.909,-1.09 8.049,-1.09 3.14,0 6.35,0.365 8.431,1.09 4.571,1.67 8.177,5.96 9.67,11.284 h 9.719 c 1.991,-3.681 5.03,-6.523 8.633,-7.838 3.919,-1.554 13.165,-1.55 17.617,0 0.483,0.176 0.952,0.39 1.414,0.619 C 92.21,59.734 92.599,50.449 90.03,38.297 88.235,28.742 82.173,20.855 74.284,17.967 71.03,16.831 66.023,16.261 61.114,16.26 Z"
       id="path2"
       style="stroke-width:1.71212" />
    <path
       fill="#e7e8e9"
       d="m 45.275,49.787 a 3.344,3.523 0 0 0 -3.34,3.523 3.344,3.523 0 0 0 3.34,3.523 3.344,3.523 0 0 0 3.341,-3.523 3.344,3.523 0 0 0 -3.34,-3.523 z m 33.79,0 a 3.344,3.523 0 0 0 -3.34,3.523 3.344,3.523 0 0 0 3.34,3.523 3.344,3.523 0 0 0 3.35,-3.523 3.344,3.523 0 0 0 -3.35,-3.523 z"
       id="path3"
       style="stroke-width:1.27084" />
    <path
       fill="#a7a9ac"
       d="m 50.905,50.705 -12.428,3.332 0.356,1.332 12.43,-3.332 z m 23.52,0 -0.358,1.332 12.427,3.332 0.358,-1.332 z m -22.276,2.008 -12.499,7.219 0.69,1.193 12.497,-7.218 z m 21.039,0 -0.69,1.194 12.498,7.218 0.69,-1.193 z m -20.125,2.395 -8.607,8.619 c 0.586,0.074 1.144,0.167 1.677,0.271 l 7.905,-7.916 z m 19.21,0 -0.974,0.974 10.809,10.826 c 0.612,-0.04 1.237,-0.067 1.87,-0.08 z m -18.792,3.138 -3.957,6.86 c 0.411,0.203 0.814,0.426 1.205,0.672 l 3.947,-6.844 z m 18.375,0 -1.195,0.688 5.287,9.168 c 0.098,-0.039 0.193,-0.085 0.293,-0.121 0.31,-0.123 0.665,-0.233 1.037,-0.336 z"
       id="path4"
       style="stroke-width:1.27084" />
    <path
       fill="#ffffff"
       d="M 73.261,50.84 A 10.736,10.217 0 0 1 62.525,61.058 10.736,10.217 0 0 1 51.788,50.84 10.736,10.217 0 0 1 62.525,40.623 10.736,10.217 0 0 1 73.26,50.84 Z"
       id="path5"
       style="stroke-width:1.71212" />
    <path
       fill="#808080"
       d="m 67.107,48.998 c -0.36,-0.933 -0.36,-2.799 -1.44,-2.799 -1.08,0 -2.08,-0.7 -3.142,-0.7 -1.063,0 -2.06,0.7 -3.142,0.7 -1.08,0 -1.08,1.866 -1.44,2.8 -0.36,0.932 4.582,3.964 4.582,3.964 0,0 4.942,-3.032 4.582,-3.965 z"
       id="path6"
       style="stroke-width:1.27084" />
    <path
       fill="#3c6eb4"
       d="m 57.399,74.29 c 0.33,0.886 0.59,1.81 0.793,2.761 h 8.799 c 0.443,-0.973 0.958,-1.897 1.535,-2.762 z m 44.177,10e-4 a 19.673,19.673 0 0 1 1.532,2.76 h 11.072 v -2.76 z"
       id="path7"
       style="stroke-width:1.27084" />
    <path
       fill="#cccccc"
       d="m 39.789,63.445 c -3.14,0 -6.216,0.364 -8.05,1.09 -5.046,1.844 -8.917,6.878 -10.065,12.975 -0.6,2.826 -0.945,5.391 -1.238,7.807 h 39.086 c -0.293,-2.416 -0.63,-4.98 -1.23,-7.807 -1.147,-6.097 -5.027,-11.13 -10.074,-12.974 -2.082,-0.725 -5.29,-1.09 -8.43,-1.09 z"
       id="path8"
       style="stroke-width:1.71212" />
    <path
       fill="#e7e8e9"
       d="m 29.663,84.84 a 2.14,2.248 0 0 0 -1.255,0.477 h 2.56 a 2.14,2.248 0 0 0 -1.305,-0.476 z m 21.62,0 a 2.14,2.248 0 0 0 -1.256,0.477 h 2.562 a 2.14,2.248 0 0 0 -1.307,-0.476 z"
       id="path9"
       style="stroke-width:1.27084" />
    <path
       fill="#a7a9ac"
       d="m 33.202,85.187 -0.484,0.13 h 0.52 z m 15.172,0 -0.035,0.13 h 0.52 z"
       id="path10"
       style="stroke-width:1.27084" />
    <path
       fill="#ffffff"
       d="m 40.698,79 a 6.868,6.52 0 0 0 -6.846,6.317 H 47.534 A 6.868,6.52 0 0 0 40.698,79 Z"
       id="path11"
       style="stroke-width:1.71212" />
    <path
       fill="#808080"
       d="m 40.698,82.106 c -0.68,0 -1.317,0.45 -2.008,0.45 -0.691,0 -0.696,1.188 -0.926,1.783 -0.08,0.208 0.268,0.583 0.735,0.978 h 4.396 c 0.468,-0.395 0.808,-0.77 0.727,-0.978 -0.23,-0.595 -0.226,-1.783 -0.917,-1.783 -0.69,0 -1.327,-0.45 -2.007,-0.45 z"
       id="path12"
       style="stroke-width:1.27084" />
    <path
       fill="#892ca0"
       d="M 91.736,1.467 35.998,1.631 a 1.38,1.38 0 0 0 -1.073,0.52 L 0.295,45.883 a 1.38,1.38 0 0 0 -0.26,1.16 l 12.56,54.363 a 1.38,1.38 0 0 0 0.753,0.935 l 50.285,24.061 a 1.38,1.38 0 0 0 1.195,-0.01 l 50.148,-24.355 a 1.38,1.38 0 0 0 0.744,-0.943 l 12.247,-54.432 a 1.38,1.38 0 0 0 -0.268,-1.16 L 92.82,1.977 a 1.38,1.38 0 0 0 -1.083,-0.51 z m -0.657,2.76 34.05,42.48 L 113.175,99.849 64.23,123.625 15.139,100.143 2.875,47.07 36.673,4.383 Z"
       id="path13"
       style="stroke-width:1.27084" />
    <path
       fill="#cccccc"
       d="m 106.644,95.737 c -0.606,-4.124 -0.9,-8.61 -2.019,-13.887 -1.228,-6.518 -5.373,-11.9 -10.768,-13.87 -4.452,-1.55 -13.697,-1.554 -17.616,0 -5.395,1.97 -9.54,7.352 -10.768,13.87 -1.118,5.278 -1.413,9.763 -2.019,13.887"
       id="path14"
       style="stroke-width:1.71212" />
    <path
       fill="#e7e8e9"
       d="m 74.02,89.688 a 2.287,2.404 0 0 0 -2.286,2.406 2.287,2.404 0 0 0 2.286,2.406 2.287,2.404 0 0 0 2.285,-2.406 2.287,2.404 0 0 0 -2.285,-2.406 z m 23.11,0 a 2.287,2.404 0 0 0 -2.286,2.406 2.287,2.404 0 0 0 2.286,2.406 2.287,2.404 0 0 0 2.285,-2.406 2.287,2.404 0 0 0 -2.285,-2.406 z"
       id="path15"
       style="stroke-width:1.27084" />
    <path
       fill="#a7a9ac"
       d="m 77.814,90.104 -8.5,2.277 0.358,1.332 8.498,-2.277 z m 16.196,0 -0.358,1.332 8.5,2.277 0.358,-1.332 z m -15.4,1.392 -8.544,4.926 0.688,1.193 8.543,-4.924 z m 14.605,0 -0.69,1.195 8.543,4.924 0.69,-1.193 z"
       id="path16"
       style="stroke-width:1.27084" />
    <path
       fill="#ffffff"
       d="m 93.157,90.41 a 7.343,6.97 0 0 1 -7.342,6.97 7.343,6.97 0 0 1 -7.343,-6.97 7.343,6.97 0 0 1 7.343,-6.97 7.343,6.97 0 0 1 7.342,6.97 z"
       id="path17"
       style="stroke-width:1.71212" />
    <path
       fill="#808080"
       d="m 88.948,89.152 c -0.246,-0.636 -0.246,-1.91 -0.985,-1.91 -0.738,0 -1.42,-0.476 -2.148,-0.476 -0.727,0 -1.41,0.477 -2.149,0.477 -0.738,0 -0.738,1.273 -0.985,1.91 -0.246,0.636 3.134,2.704 3.134,2.704 0,0 3.38,-2.068 3.133,-2.705 z"
       id="path18"
       style="stroke-width:1.27084" />
    <path
       fill="#60605b"
       d="m 62.526,39.592 c -6.461,0 -11.77,5.022 -11.77,11.252 0,6.23 5.309,11.252 11.77,11.252 6.462,0 11.771,-5.022 11.771,-11.252 0,-6.23 -5.311,-11.252 -11.771,-11.252 z m 0,2.069 c 5.398,0 9.703,4.128 9.703,9.183 0,5.056 -4.305,9.182 -9.703,9.182 -5.397,0 -9.703,-4.126 -9.703,-9.182 0,-5.055 4.306,-9.183 9.703,-9.183 z m -21.828,36.3 c -4.254,0 -7.78,3.26 -7.895,7.356 h 2.069 c 0.112,-2.92 2.637,-5.288 5.826,-5.288 3.19,0 5.712,2.368 5.824,5.288 h 2.068 c -0.113,-4.095 -3.64,-7.356 -7.892,-7.356 z m 45.119,4.447 c -4.585,0 -8.38,3.56 -8.38,7.998 0,4.44 3.795,8.006 8.38,8.006 4.586,0 8.379,-3.567 8.379,-8.006 0,-4.438 -3.793,-7.998 -8.38,-7.998 z m 0,2.069 c 3.525,0 6.31,2.667 6.31,5.93 0,3.26 -2.785,5.937 -6.31,5.937 -3.524,0 -6.31,-2.677 -6.31,-5.938 0,-3.26 2.786,-5.93 6.31,-5.93 z"
       id="path19"
       style="stroke-width:1.27084" />
    <path
       fill="#3c6eb4"
       d="m 15.962,85.317 v 2.76 h 48.462 c 0.12,-0.897 0.253,-1.816 0.406,-2.76 z M 40.516,95.66 v 2.752 H 112.18 V 95.66 h -5.545 l 0.01,0.076 H 63.453 l 0.01,-0.076 z"
       id="path20"
       style="stroke-width:1.27084" />
    <path
       d="m 61.116,15.227 h -0.002 c -4.982,0 -9.83,0.544 -12.955,1.783 -8.283,3.043 -14.528,11.225 -16.385,21.076 -1.652,7.815 -2.09,14.424 -2.969,20.408 -0.375,2.558 -0.838,4.995 -1.496,7.377 -3.361,2.655 -5.775,6.766 -6.658,11.45 -0.616,2.913 -0.957,5.54 -1.254,7.996 h 2.078 c 0.288,-2.37 0.624,-4.86 1.203,-7.59 l 0.008,-0.01 v -0.018 c 1.09,-5.783 4.77,-10.492 9.408,-12.185 l 0.018,-0.01 0.008,-0.008 c 1.573,-0.624 4.607,-1.014 7.668,-1.014 3.057,0 6.211,0.381 8.084,1.031 4.634,1.696 8.311,6.406 9.4,12.186 v 0.018 l 0.008,0.01 c 0.58,2.73 0.915,5.221 1.203,7.59 h 2.079 C 60.265,82.859 59.925,80.227 59.308,77.311 58.098,70.905 54.026,65.557 48.573,63.566 h -0.008 l -0.008,-0.01 c -2.292,-0.796 -5.55,-1.14 -8.77,-1.142 -3.214,0 -6.328,0.333 -8.419,1.16 -0.518,0.19 -1.02,0.42 -1.512,0.668 a 70.243,70.243 0 0 0 1,-5.445 C 31.751,52.695 32.171,46.164 33.79,38.51 L 33.8,38.5 v -0.016 c 1.736,-9.24 7.606,-16.806 15.086,-19.544 l 0.01,-0.008 h 0.015 c 2.605,-1.036 7.375,-1.636 12.205,-1.635 4.823,0 9.764,0.583 12.81,1.643 7.48,2.737 13.35,10.303 15.084,19.543 l 0.01,0.02 v 0.007 c 1.618,7.654 2.048,14.185 2.943,20.287 0.403,2.748 0.926,5.41 1.68,8.035 -2.394,-0.724 -5.604,-1.05 -8.795,-1.05 -3.43,0 -6.747,0.36 -8.966,1.238 -5.794,2.12 -10.125,7.8 -11.416,14.619 -1.136,5.358 -1.438,9.879 -2.036,13.943 l 2.051,0.303 c 0.615,-4.183 0.898,-8.626 2,-13.823 l 0.01,-0.01 v -0.007 c 1.168,-6.205 5.123,-11.276 10.11,-13.096 h 0.007 l 0.018,-0.01 c 1.7,-0.674 4.946,-1.09 8.223,-1.09 3.275,0 6.648,0.407 8.664,1.108 h 0.01 c 4.977,1.826 8.922,6.89 10.09,13.088 v 0.017 c 1.101,5.196 1.392,9.64 2.007,13.822 l 2.053,-0.302 c -0.597,-4.065 -0.9,-8.586 -2.035,-13.944 -1.146,-6.057 -4.692,-11.213 -9.53,-13.777 -1.004,-3.013 -1.62,-6.093 -2.101,-9.367 C 93.13,52.514 92.695,45.91 91.046,38.104 89.192,28.236 82.943,20.03 74.644,16.992 h -0.018 c -3.464,-1.21 -8.52,-1.764 -13.51,-1.765 z M 45.546,27.69 a 6.912,6.912 0 0 0 -5.506,2.684 l -0.633,0.814 1.646,1.264 0.631,-0.823 a 4.92,4.92 0 0 1 3.592,-1.869 c 1.3,-0.055 2.65,0.468 3.574,1.385 l 0.736,0.736 1.463,-1.472 -0.736,-0.727 a 6.905,6.905 0 0 0 -4.77,-1.99 z m 33.372,0 a 6.905,6.905 0 0 0 -4.77,1.992 l -0.736,0.727 1.455,1.472 0.737,-0.736 a 4.895,4.895 0 0 1 3.574,-1.385 c 1.375,0.06 2.76,0.777 3.6,1.87 l 0.633,0.822 1.636,-1.264 -0.633,-0.814 A 6.895,6.895 0 0 0 78.918,27.69 Z m -33.425,9.115 a 5.17,5.306 0 0 0 -5.168,5.305 5.17,5.306 0 0 0 5.168,5.306 5.17,5.306 0 0 0 5.175,-5.306 5.17,5.306 0 0 0 -5.175,-5.305 z m 33.468,0 a 5.17,5.306 0 0 0 -5.167,5.305 5.17,5.306 0 0 0 5.167,5.306 5.17,5.306 0 0 0 5.168,-5.306 5.17,5.306 0 0 0 -5.167,-5.305 z m -16.435,7.66 c -0.758,0 -1.379,0.233 -1.895,0.407 -0.517,0.175 -0.93,0.294 -1.248,0.294 -0.567,0 -1.124,0.311 -1.427,0.676 -0.302,0.364 -0.445,0.74 -0.555,1.098 -0.22,0.713 -0.327,1.438 -0.424,1.69 -0.222,0.574 -0.01,1.031 0.166,1.331 0.175,0.3 0.389,0.536 0.63,0.78 0.484,0.486 1.096,0.973 1.714,1.427 0.633,0.464 1.268,0.886 1.74,1.194 l -0.025,0.416 c -0.233,0.19 -0.8,0.693 -1.74,1.011 -0.556,0.188 -1.116,0.255 -1.602,0.131 -0.413,-0.106 -0.824,-0.47 -1.246,-1.021 0.027,-0.218 0.037,-0.307 0.086,-0.666 0.087,-0.628 0.213,-1.387 0.27,-1.612 l -2.009,-0.502 c -0.12,0.48 -0.222,1.18 -0.312,1.829 -0.09,0.648 -0.156,1.203 -0.156,1.203 l -0.043,0.37 0.199,0.311 c 0.729,1.146 1.701,1.841 2.701,2.096 1,0.256 1.97,0.101 2.78,-0.172 1.05,-0.357 1.906,-0.93 2.378,-1.29 0.473,0.36 1.324,0.935 2.371,1.29 0.81,0.274 1.77,0.428 2.77,0.172 1,-0.256 1.973,-0.95 2.701,-2.096 l 0.2,-0.31 -0.044,-0.371 c 0,0 -0.066,-0.555 -0.156,-1.203 -0.09,-0.65 -0.194,-1.349 -0.312,-1.829 l -2.008,0.502 c 0.056,0.225 0.182,0.984 0.27,1.612 0.048,0.354 0.06,0.44 0.085,0.658 -0.424,0.556 -0.83,0.923 -1.246,1.03 -0.486,0.123 -1.045,0.056 -1.601,-0.132 -0.94,-0.318 -1.508,-0.821 -1.74,-1.011 L 63.78,53.389 c 0.479,-0.31 1.128,-0.74 1.783,-1.22 0.618,-0.455 1.23,-0.943 1.715,-1.43 0.24,-0.243 0.456,-0.479 0.63,-0.778 0.177,-0.3 0.387,-0.757 0.165,-1.332 -0.097,-0.25 -0.212,-0.976 -0.432,-1.69 -0.11,-0.356 -0.242,-0.734 -0.545,-1.099 -0.303,-0.364 -0.86,-0.674 -1.428,-0.674 -0.317,0 -0.73,-0.12 -1.246,-0.294 -0.517,-0.174 -1.137,-0.407 -1.896,-0.407 z m 0,2.069 c 0.305,0 0.71,0.118 1.23,0.293 0.478,0.162 1.079,0.34 1.764,0.373 0.023,0.035 0.085,0.15 0.148,0.355 0.111,0.36 0.224,0.91 0.38,1.445 -0.05,0.068 -0.11,0.153 -0.241,0.285 -0.342,0.344 -0.9,0.791 -1.473,1.211 -0.88,0.647 -1.43,0.984 -1.808,1.221 -0.375,-0.236 -0.936,-0.57 -1.819,-1.22 -0.573,-0.42 -1.12,-0.868 -1.462,-1.212 -0.132,-0.132 -0.19,-0.217 -0.24,-0.285 0.154,-0.535 0.268,-1.084 0.378,-1.445 A 1.55,1.55 0 0 1 59.532,47.2 c 0.684,-0.032 1.277,-0.211 1.756,-0.373 0.518,-0.175 0.934,-0.293 1.238,-0.293 z M 29.584,70.369 c -1.4,0.06 -2.71,0.744 -3.566,1.854 l -0.63,0.822 1.634,1.264 0.633,-0.824 a 2.803,2.803 0 0 1 2.025,-1.047 2.777,2.777 0 0 1 2.008,0.779 l 0.736,0.727 1.453,-1.471 -0.736,-0.727 a 4.786,4.786 0 0 0 -3.557,-1.377 z m 21.838,0 a 4.767,4.767 0 0 0 -3.55,1.377 l -0.735,0.727 1.453,1.47 0.737,-0.726 a 2.777,2.777 0 0 1 2.007,-0.78 2.8,2.8 0 0 1 2.026,1.048 l 0.623,0.824 1.644,-1.264 -0.632,-0.822 a 4.79,4.79 0 0 0 -3.573,-1.854 z m 45.604,3.912 h -0.002 a 5.046,5.046 0 0 0 -3.487,1.456 l -0.736,0.726 1.455,1.47 0.734,-0.726 a 3.029,3.029 0 0 1 2.2,-0.847 c 0.84,0.035 1.701,0.477 2.214,1.142 l 0.633,0.822 1.637,-1.263 -0.633,-0.822 a 5.022,5.022 0 0 0 -3.758,-1.95 c -0.085,-0.003 -0.17,-0.008 -0.257,-0.008 z m -22.824,0 c -0.087,0 -0.173,0.004 -0.26,0.009 a 5.04,5.04 0 0 0 -3.766,1.949 l -0.63,0.822 1.644,1.264 0.63,-0.823 a 3.035,3.035 0 0 1 2.208,-1.142 3.048,3.048 0 0 1 2.207,0.847 l 0.736,0.727 1.455,-1.47 -0.736,-0.727 A 5.045,5.045 0 0 0 74.202,74.282 Z M 29.8,76.559 a 3.307,3.386 0 0 0 -3.306,3.384 3.307,3.386 0 0 0 3.306,3.393 3.307,3.386 0 0 0 3.306,-3.393 3.307,3.386 0 0 0 -3.306,-3.384 z m 21.412,0 a 3.307,3.386 0 0 0 -3.315,3.384 3.307,3.386 0 0 0 3.315,3.393 3.307,3.386 0 0 0 3.306,-3.393 3.307,3.386 0 0 0 -3.306,-3.384 z m 22.953,4.276 a 3.536,3.62 0 0 0 -3.53,3.617 3.536,3.62 0 0 0 3.53,3.618 3.536,3.62 0 0 0 3.54,-3.618 3.536,3.62 0 0 0 -3.54,-3.617 z m 22.893,0 a 3.536,3.62 0 0 0 -3.54,3.617 3.536,3.62 0 0 0 3.54,3.618 3.536,3.62 0 0 0 3.532,-3.618 3.536,3.62 0 0 0 -3.532,-3.617 z m -56.361,0.242 c -0.566,0 -1.004,0.167 -1.334,0.278 -0.33,0.11 -0.551,0.164 -0.674,0.164 -0.47,0 -0.957,0.276 -1.203,0.572 -0.246,0.295 -0.347,0.58 -0.424,0.83 -0.156,0.503 -0.229,0.965 -0.26,1.047 -0.206,0.533 -0.01,0.94 0.13,1.178 0.038,0.066 0.08,0.115 0.12,0.172 h 3.16 a 11.125,11.125 0 0 1 -0.459,-0.32 c -0.358,-0.264 -0.707,-0.541 -0.9,-0.735 v -0.01 c 0.063,-0.26 0.137,-0.572 0.182,-0.719 0.005,-0.016 0.004,-0.002 0.01,-0.015 0.366,-0.054 0.733,-0.127 0.976,-0.21 0.332,-0.111 0.562,-0.163 0.676,-0.163 0.113,0 0.334,0.052 0.666,0.164 0.243,0.082 0.613,0.155 0.978,0.209 0.005,0.013 0.003,0 0.008,0.015 0.046,0.147 0.128,0.457 0.19,0.72 l -0.008,0.009 c -0.193,0.194 -0.54,0.471 -0.899,0.734 a 15.49,15.49 0 0 1 -0.45,0.32 h 3.16 c 0.04,-0.055 0.082,-0.106 0.119,-0.171 0.14,-0.238 0.337,-0.645 0.13,-1.178 -0.03,-0.081 -0.113,-0.544 -0.27,-1.047 a 2.198,2.198 0 0 0 -0.423,-0.83 c -0.246,-0.296 -0.723,-0.572 -1.193,-0.572 -0.123,0 -0.346,-0.053 -0.676,-0.164 -0.33,-0.111 -0.766,-0.278 -1.332,-0.278 z m 45.119,4.657 c -0.59,0 -1.05,0.176 -1.403,0.295 -0.353,0.119 -0.597,0.18 -0.744,0.18 -0.482,0 -0.976,0.275 -1.23,0.58 -0.252,0.303 -0.359,0.602 -0.44,0.866 -0.164,0.528 -0.246,1.023 -0.285,1.125 -0.209,0.54 -0.006,0.95 0.137,1.194 0.144,0.246 0.31,0.42 0.486,0.598 0.353,0.353 0.781,0.688 1.211,1.003 0.355,0.26 0.701,0.496 0.996,0.694 -0.195,0.155 -0.454,0.367 -0.928,0.527 -0.34,0.115 -0.656,0.142 -0.908,0.078 -0.184,-0.047 -0.391,-0.261 -0.597,-0.492 0.016,-0.127 0.02,-0.135 0.043,-0.295 0.06,-0.425 0.145,-0.952 0.173,-1.064 L 80.32,90.521 c -0.092,0.368 -0.155,0.834 -0.217,1.279 -0.062,0.447 -0.104,0.832 -0.104,0.832 l -0.043,0.363 0.2,0.313 c 0.533,0.838 1.277,1.379 2.04,1.574 0.765,0.195 1.486,0.071 2.079,-0.129 a 6.1,6.1 0 0 0 1.523,-0.789 c 0.358,0.252 0.887,0.573 1.524,0.79 0.593,0.2 1.312,0.323 2.076,0.128 0.765,-0.195 1.509,-0.736 2.043,-1.574 l 0.2,-0.313 -0.044,-0.363 c 0,0 -0.051,-0.384 -0.113,-0.83 -0.061,-0.446 -0.123,-0.913 -0.215,-1.281 l -2.008,0.502 c 0.028,0.112 0.123,0.64 0.182,1.064 0.02,0.16 0.017,0.168 0.033,0.295 -0.205,0.23 -0.405,0.445 -0.588,0.492 -0.252,0.064 -0.57,0.037 -0.91,-0.078 -0.46,-0.156 -0.713,-0.364 -0.908,-0.52 0.3,-0.198 0.65,-0.436 1.013,-0.7 0.43,-0.316 0.858,-0.65 1.211,-1.004 a 2.89,2.89 0 0 0 0.485,-0.598 c 0.144,-0.245 0.338,-0.655 0.13,-1.194 -0.04,-0.102 -0.123,-0.597 -0.287,-1.125 -0.08,-0.264 -0.18,-0.563 -0.431,-0.867 -0.254,-0.304 -0.747,-0.58 -1.229,-0.58 -0.146,0 -0.39,-0.06 -0.744,-0.18 -0.353,-0.12 -0.812,-0.294 -1.402,-0.294 z m 0,2.068 c 0.137,0 0.381,0.062 0.736,0.182 a 6.22,6.22 0 0 0 1.082,0.224 c 0.013,0.028 0,0.01 0.015,0.06 0.054,0.175 0.141,0.511 0.217,0.815 l -0.035,0.035 a 9.253,9.253 0 0 1 -0.969,0.795 c -0.505,0.37 -0.744,0.51 -1.046,0.701 -0.3,-0.19 -0.54,-0.329 -1.047,-0.7 a 9.251,9.251 0 0 1 -0.971,-0.796 c -0.022,-0.023 -0.014,-0.024 -0.033,-0.045 0.074,-0.298 0.154,-0.632 0.207,-0.804 0.016,-0.053 0.012,-0.033 0.025,-0.06 a 6.043,6.043 0 0 0 1.074,-0.225 c 0.355,-0.12 0.607,-0.182 0.744,-0.182 z"
       id="path21"
       style="stroke-width:1.27084" />
    <path
       fill="#892ca0"
       d="m 45.491,35.775 a 6.084,6.084 0 0 0 -4.382,1.866 6.361,6.361 0 0 0 -1.535,2.595 6.388,6.388 0 0 0 -0.27,2.198 6.397,6.397 0 0 0 2.721,4.923 6.211,6.211 0 0 0 1.335,0.701 6.056,6.056 0 0 0 4.55,-0.11 6.095,6.095 0 0 0 1.531,-0.954 6.295,6.295 0 0 0 1.36,-1.607 6.396,6.396 0 0 0 0.826,-4.236 6.431,6.431 0 0 0 -0.827,-2.317 6.396,6.396 0 0 0 -1.837,-1.973 6.211,6.211 0 0 0 -1.336,-0.7 6.047,6.047 0 0 0 -2.134,-0.386 z m 33.47,0 a 6.107,6.107 0 0 0 -2.132,0.389 6.075,6.075 0 0 0 -1.577,0.878 6.277,6.277 0 0 0 -1.43,1.538 6.396,6.396 0 0 0 -0.932,4.8 6.401,6.401 0 0 0 1.688,3.2 6.33,6.33 0 0 0 1.428,1.096 6.141,6.141 0 0 0 1.705,0.64 6.01,6.01 0 0 0 1.885,0.097 6.06,6.06 0 0 0 3.31,-1.422 6.32,6.32 0 0 0 1.506,-1.872 6.383,6.383 0 0 0 0.715,-3.652 6.431,6.431 0 0 0 -0.864,-2.63 6.39,6.39 0 0 0 -2.086,-2.138 6.18,6.18 0 0 0 -1.665,-0.722 6.021,6.021 0 0 0 -1.55,-0.202 z m -33.47,2.06 h 0.002 a 4.315,4.315 0 0 1 0.63,0.048 4.006,4.006 0 0 1 1.343,0.462 4.108,4.108 0 0 1 0.956,0.732 4.226,4.226 0 0 1 0.89,1.358 4.325,4.325 0 0 1 0.321,1.453 4.547,4.547 0 0 1 -0.182,1.504 4.325,4.325 0 0 1 -0.761,1.45 4.226,4.226 0 0 1 -1.224,1.035 4.069,4.069 0 0 1 -2.603,0.46 4.056,4.056 0 0 1 -2.562,-1.497 4.252,4.252 0 0 1 -0.76,-1.45 4.375,4.375 0 0 1 -0.186,-1.28 4.54,4.54 0 0 1 0.187,-1.28 4.33,4.33 0 0 1 0.76,-1.449 4.218,4.218 0 0 1 1.22,-1.034 4.062,4.062 0 0 1 1.757,-0.506 c 0.07,-0.004 0.141,-0.005 0.212,-0.005 z m 33.47,0 a 4.088,4.088 0 0 1 1.23,0.191 4.036,4.036 0 0 1 1.4,0.779 4.19,4.19 0 0 1 1.008,1.258 4.3,4.3 0 0 1 0.479,1.607 4.472,4.472 0 0 1 -0.48,2.489 4.28,4.28 0 0 1 -1.007,1.258 4.146,4.146 0 0 1 -1.02,0.636 4.033,4.033 0 0 1 -3.218,0 4.068,4.068 0 0 1 -1.315,-0.911 4.226,4.226 0 0 1 -0.888,-1.358 4.326,4.326 0 0 1 -0.32,-1.452 4.54,4.54 0 0 1 0.079,-1.09 4.372,4.372 0 0 1 0.623,-1.532 4.25,4.25 0 0 1 1.118,-1.15 4.105,4.105 0 0 1 1.279,-0.591 4.035,4.035 0 0 1 1.032,-0.134 z M 29.688,75.527 a 1.39,1.39 0 0 0 -0.112,0.001 c -2.295,0.12 -4.111,2.074 -4.111,4.414 0,2.416 1.937,4.423 4.336,4.423 2.399,0 4.344,-2.007 4.344,-4.423 0,-2.416 -1.945,-4.414 -4.344,-4.414 z m 21.413,0 a 1.415,1.415 0 0 0 -0.113,0.001 c -2.295,0.12 -4.12,2.074 -4.12,4.414 0,2.416 1.946,4.423 4.345,4.423 2.4,0 4.336,-2.007 4.336,-4.423 0,-2.416 -1.937,-4.414 -4.336,-4.414 z m -21.3,2.07 c 1.254,0 2.275,1.021 2.275,2.345 0,1.324 -1.021,2.354 -2.275,2.354 -1.254,0 -2.269,-1.03 -2.269,-2.354 0,-1.324 1.015,-2.345 2.269,-2.345 z m 21.412,0 c 1.254,0 2.268,1.021 2.268,2.345 0,1.324 -1.014,2.354 -2.268,2.354 -1.254,0 -2.276,-1.03 -2.276,-2.354 0,-1.324 1.022,-2.345 2.276,-2.345 z m 22.953,2.198 c -2.525,0 -4.57,2.111 -4.57,4.656 0,2.546 2.045,4.657 4.57,4.657 2.526,0 4.57,-2.11 4.57,-4.657 0,-2.545 -2.044,-4.656 -4.57,-4.656 z m 22.893,0 c -2.525,0 -4.57,2.111 -4.57,4.656 0,2.546 2.045,4.657 4.57,4.657 2.526,0 4.57,-2.11 4.57,-4.657 0,-2.545 -2.044,-4.656 -4.57,-4.656 z m -22.957,2.068 0.065,0.001 c 1.38,0 2.5,1.134 2.5,2.587 0,1.454 -1.12,2.588 -2.5,2.588 -1.38,0 -2.502,-1.134 -2.502,-2.588 0,-1.408 1.05,-2.52 2.372,-2.587 a 0.761,0.761 0 0 1 0.065,0 z m 22.892,0 0.066,0.001 c 1.38,0 2.5,1.134 2.5,2.587 0,1.454 -1.12,2.588 -2.5,2.588 -1.38,0 -2.502,-1.134 -2.502,-2.588 0,-1.408 1.05,-2.52 2.372,-2.587 a 0.757,0.757 0 0 1 0.064,0 z"
       id="path22"
       style="stroke-width:1.27084" />
    <path
       fill="#ffffff"
       d="m 43.77,37.973 a 2.543,2.644 0 0 0 -2.545,2.64 2.543,2.644 0 0 0 2.545,2.65 2.543,2.644 0 0 0 2.545,-2.65 2.543,2.644 0 0 0 -2.545,-2.64 z m 33.453,0 a 2.543,2.644 0 0 0 -2.545,2.64 2.543,2.644 0 0 0 2.545,2.65 2.543,2.644 0 0 0 2.543,-2.65 2.543,2.644 0 0 0 -2.543,-2.64 z M 28.7,77.303 a 1.626,1.687 0 0 0 -1.625,1.687 1.626,1.687 0 0 0 1.627,1.688 1.626,1.687 0 0 0 1.627,-1.688 1.626,1.687 0 0 0 -1.627,-1.687 z m 21.62,0.242 a 1.626,1.687 0 0 0 -1.626,1.688 1.626,1.687 0 0 0 1.627,1.687 1.626,1.687 0 0 0 1.629,-1.687 1.626,1.687 0 0 0 -1.63,-1.688 z m 22.67,4.086 a 1.739,1.804 0 0 0 -1.74,1.799 1.739,1.804 0 0 0 1.74,1.808 1.739,1.804 0 0 0 1.74,-1.808 1.739,1.804 0 0 0 -1.74,-1.799 z m 23.247,0.232 a 1.739,1.804 0 0 0 -1.74,1.81 1.739,1.804 0 0 0 1.74,1.8 1.739,1.804 0 0 0 1.74,-1.8 1.739,1.804 0 0 0 -1.74,-1.81 z"
       id="path23"
       style="stroke-width:1.71212" />
  </g>
</svg>
