<?xml version="1.0" encoding="UTF-8" standalone="no"?>
<svg
   version="1.1"
   id="Crystal-Ball--Streamline-Noto-Emoji"
   x="0"
   y="0"
   viewBox="0 0 97.520002 120.00001"
   xml:space="preserve"
   enable-background="new 0 0 128 128"
   height="360"
   width="292.56"
   sodipodi:docname="crystal-ball-streamline-noto-emojis.svg"
   inkscape:version="1.4.2 (f4327f4, 2025-05-13)"
   inkscape:export-filename="crystal-ball-streamline-noto-emojis.png"
   inkscape:export-xdpi="96"
   inkscape:export-ydpi="96"
   xmlns:inkscape="http://www.inkscape.org/namespaces/inkscape"
   xmlns:sodipodi="http://sodipodi.sourceforge.net/DTD/sodipodi-0.dtd"
   xmlns="http://www.w3.org/2000/svg"
   xmlns:svg="http://www.w3.org/2000/svg"><defs
   id="defs26" /><sodipodi:namedview
   id="namedview26"
   pagecolor="#ffffff"
   bordercolor="#000000"
   borderopacity="0.25"
   inkscape:showpageshadow="2"
   inkscape:pageopacity="0.0"
   inkscape:pagecheckerboard="0"
   inkscape:deskcolor="#d1d1d1"
   inkscape:zoom="0.27863046"
   inkscape:cx="-337.36441"
   inkscape:cy="733.94704"
   inkscape:window-width="1920"
   inkscape:window-height="1009"
   inkscape:window-x="-8"
   inkscape:window-y="-8"
   inkscape:window-maximized="1"
   inkscape:current-layer="Crystal-Ball--Streamline-Noto-Emoji" />
  <desc
   id="desc1">
    Crystal Ball Streamline Emoji: https://streamlinehq.com
  </desc>
  <g
   id="g26"
   transform="translate(-15.24,-4)">
    <g
   id="g9">
      <g
   id="g2">
        <path
   d="m 31.13,110.55 c 0,-4.3 6.01,-19.49 6.01,-19.49 5.79,-1.79 47.6,-0.27 53.97,-0.27 0,0 5.76,12.33 5.76,19.76 0,7.43 -17.68,13.45 -32.81,13.45 -15.13,0 -32.93,-6.02 -32.93,-13.45 z"
   fill="#8b5738"
   id="path1" />
        <path
   d="m 37.01,93.5 a 27.05,11.75 0 1 0 54.1,0 27.05,11.75 0 1 0 -54.1,0"
   fill="#ffb17a"
   id="path2" />
      </g>
      <g
   id="g8">
        <g
   id="g3">
          <path
   d="m 38.67,106.15 c 3.02,1.72 7.8,1.59 11.51,2.26 4.72,0.86 7.39,4.46 16.49,4.3 3.25,-0.06 10.83,-0.43 10.41,-0.42 -0.26,-0.53 -1.74,-1.04 -4.62,-1.49 -2.64,-0.42 -4.54,-0.38 -7.6,-0.38 -2.34,0 -5.55,-0.7 -8.79,-2.48 -1.48,-0.81 -3.78,-1.71 -6.03,-2.17 -3.46,-0.71 -5.87,0.04 -10.7,-2.25 -2.31,-1.09 -4.18,-3.35 -4.62,-5.98 l -1.14,3.28 c 1.5,2.75 2.87,4.07 5.09,5.33 z"
   fill="#cc8552"
   id="path3" />
        </g>
        <g
   id="g4">
          <path
   d="m 88.44,103.46 c -7.74,4.92 -14.28,4.37 -14.28,4.37 -0.55,0.36 3.96,1.33 7.31,0.77 6.58,-1.1 10.58,-4.4 13.18,-8.82 -0.36,-1.12 -1.15,-3.24 -1.15,-3.24 -0.75,1.81 -1.62,4.73 -5.06,6.92 z"
   fill="#cc8552"
   id="path4" />
        </g>
        <g
   id="g5">
          <path
   d="m 74.51,117.42 c -4.28,0.78 -8.38,-0.55 -12.59,-1.54 -5.77,-1.35 -16.61,-1.16 -16.61,-1.16 -0.65,0.32 5.11,2.41 7.91,2.65 2.55,0.22 5.25,0 7.67,0.99 3.41,1.39 6.71,2.09 10.01,2.09 6.27,0 14.46,-3.78 16.41,-8.69 0,0 -3.58,2.1 -6.36,3.51 -2.02,1.03 -4.2,1.75 -6.44,2.15 z"
   fill="#a86d44"
   id="path5" />
        </g>
        <path
   d="m 35.82,111.48 c 0.85,1.36 1.72,2.62 2.86,3.75 1.93,1.92 4.37,3.03 5.94,2.75 0,0 -5.56,-4.49 -4.97,-5.66 0.3,-0.6 11.84,0.35 11.84,0.35 0,0 -3.5,-1.84 -6.91,-2.5 -2.21,-0.43 -6.25,0.43 -9.93,-2.16 -2.03,-1.43 -2.34,-3.15 -2.34,-3.15 0,0 -0.73,2.49 -0.88,3.44 2.13,2.23 4.11,2.73 4.39,3.18 z"
   fill="#a86d44"
   id="path6" />
        <g
   id="g7">
          <path
   d="m 94.3,106.54 c -2.02,1.81 -5.21,5.47 -5.21,7.36 0,0 3.58,-3.47 5.99,-5.06 0.6,-0.39 1.03,-0.89 1.5,-1.42 0,0 -0.24,-1.79 -0.62,-3.06 -0.15,0.85 -0.76,1.38 -1.66,2.18 z"
   fill="#a86d44"
   id="path7" />
        </g>
      </g>
    </g>
    <g
   id="g25">
      <g
   id="g19">
        <g
   id="g17">
          <radialGradient
   id="SVGID_1_"
   cx="77.121002"
   cy="66.694"
   r="76.183998"
   gradientTransform="rotate(-3.714,-608.323,2.714)"
   gradientUnits="userSpaceOnUse">
            <stop
   offset=".104"
   stop-color="#CE93D8"
   id="stop9" />
            <stop
   offset="1"
   stop-color="#AB47BC"
   id="stop10" />
          </radialGradient>
          <path
   d="m 15.24,52.76 a 48.76,48.76 0 1 0 97.52,0 48.76,48.76 0 1 0 -97.52,0"
   fill="url(#SVGID_1_)"
   id="path10"
   style="fill:url(#SVGID_1_)" />
          <radialGradient
   id="SVGID_2_"
   cx="53.348999"
   cy="46.134998"
   r="69.389"
   gradientUnits="userSpaceOnUse">
            <stop
   offset=".28"
   stop-color="#81D4FA"
   stop-opacity="0"
   id="stop11" />
            <stop
   offset=".964"
   stop-color="#81D4FA"
   stop-opacity=".9"
   id="stop12" />
          </radialGradient>
          <path
   d="m 15.24,52.76 a 48.76,48.76 0 1 0 97.52,0 48.76,48.76 0 1 0 -97.52,0"
   fill="url(#SVGID_2_)"
   id="path12"
   style="fill:url(#SVGID_2_)" />
          <linearGradient
   id="SVGID_3_"
   gradientUnits="userSpaceOnUse"
   x1="74.690002"
   y1="10.651"
   x2="35.942001"
   y2="111.007">
            <stop
   offset="0"
   stop-color="#673AB7"
   id="stop13" />
            <stop
   offset=".937"
   stop-color="#673AB7"
   stop-opacity="0"
   id="stop14" />
          </linearGradient>
          <path
   d="m 45.91,22.37 c 4.54,0.39 13.84,3.79 7.07,12.51 -4.45,5.73 -10.01,11.06 -11.98,15.67 -5.69,13.33 8.57,18.77 13,20.16 3.84,1.21 11.24,3.91 13.32,7.36 C 75.35,91.37 50.93,95 50.93,95 c 0,0 17.97,6.55 32.77,-3.46 5.6,-3.79 10.53,-12.61 5.71,-20.55 -2.34,-3.85 -8.79,-7.32 -10.37,-8.56 -6.76,-5.34 -10.93,-10.86 -7.57,-17.05 1.36,-2.5 4.2,-3.8 6.95,-4.56 7.7,-2.13 17.31,-1.75 19.82,-11.26 C 100.41,21.36 84.57,3.04 60,6.02 49.8,7.25 40.62,11.52 33.11,18.54 19.25,31.51 20.45,42.24 20.45,42.24 c 0,0 9.03,-21.3 25.46,-19.87 z"
   opacity="0.7"
   fill="url(#SVGID_3_)"
   id="path14"
   style="fill:url(#SVGID_3_)" />
          <linearGradient
   id="SVGID_4_"
   gradientUnits="userSpaceOnUse"
   x1="80.877998"
   y1="24.934"
   x2="80.877998"
   y2="108.077">
            <stop
   offset=".235"
   stop-color="#1D44B3"
   id="stop15" />
            <stop
   offset=".884"
   stop-color="#2044B3"
   stop-opacity=".074"
   id="stop16" />
            <stop
   offset=".936"
   stop-color="#2144B3"
   stop-opacity="0"
   id="stop17" />
          </linearGradient>
          <path
   d="M 99.77,24.22 C 96.29,19.16 91.48,15.14 86.41,11.67 78.32,6.14 67.86,5.69 67.86,5.69 c 12.84,6.14 11.4,14.28 7.21,20.1 -5.1,7.09 -15.33,11.88 -18,20.51 -1.56,5.04 -0.6,10.34 4.31,13.56 4.91,3.22 22.58,11.77 23.19,21.89 0.46,7.62 -5.6,12.42 -5.6,12.42 7.09,-1.53 22.01,-11.97 17.59,-22.71 -2.14,-5.2 -11.87,-8.65 -6.97,-14.58 1.82,-2.21 14.53,-3.39 15.72,-16.25 0.55,-6.01 -2.69,-12.27 -5.54,-16.41 z"
   opacity="0.39"
   fill="url(#SVGID_4_)"
   id="path17"
   style="fill:url(#SVGID_4_)" />
        </g>
        <linearGradient
   id="SVGID_5_"
   gradientUnits="userSpaceOnUse"
   x1="-2575.355"
   y1="437.51901"
   x2="-2575.355"
   y2="471.20599"
   gradientTransform="matrix(-0.96584899,0.25910563,0.25910563,0.96584899,-2567.8605,261.19412)">
          <stop
   offset=".227"
   stop-color="#FFFFFF"
   id="stop18" />
          <stop
   offset="1"
   stop-color="#FFFFFF"
   stop-opacity="0"
   id="stop19" />
        </linearGradient>
        <path
   d="m 24.71,61.66 c 0,0 -7.3,-19.36 7.69,-37.29 12.35,-14.78 23.5,-8.8 21.78,-2.5 -1.73,6.3 -7.1,8.24 -15.19,14.57 C 28.3,44.8 24.71,61.66 24.71,61.66 Z"
   opacity="0.85"
   fill="url(#SVGID_5_)"
   id="path19"
   style="fill:url(#SVGID_5_)" />
      </g>
      <g
   id="g24">
        <linearGradient
   id="SVGID_6_"
   gradientUnits="userSpaceOnUse"
   x1="85.871002"
   y1="28.959999"
   x2="85.871002"
   y2="52.387001">
          <stop
   offset=".261"
   stop-color="#FFFFFF"
   id="stop20" />
          <stop
   offset="1"
   stop-color="#FFFFFF"
   stop-opacity="0"
   id="stop21" />
        </linearGradient>
        <path
   d="M 92.96,34.77 C 91.01,33.8 89.45,32.58 88.77,30.51 l -2.89,-9.57 -2.89,9.57 c -0.68,2.06 -2.25,3.29 -4.19,4.26 l -4.83,2.09 4.97,2.06 c 1.95,0.97 3.37,2.3 4.06,4.36 l 2.89,9.49 2.89,-9.49 c 0.68,-2.06 2.11,-3.39 4.06,-4.36 l 4.97,-2.06 z"
   fill="url(#SVGID_6_)"
   id="path21"
   style="fill:url(#SVGID_6_)" />
        <linearGradient
   id="SVGID_7_"
   gradientUnits="userSpaceOnUse"
   x1="76.221001"
   y1="58.160999"
   x2="76.221001"
   y2="85.231003">
          <stop
   offset="0"
   stop-color="#FFFFFF"
   id="stop22" />
          <stop
   offset="1"
   stop-color="#FFFFFF"
   stop-opacity="0"
   id="stop23" />
        </linearGradient>
        <path
   d="M 83.31,69.37 C 81.36,68.4 79.8,67.18 79.12,65.11 l -2.89,-9.57 -2.89,9.57 c -0.68,2.06 -2.25,3.29 -4.19,4.26 l -4.83,2.09 4.97,2.06 c 1.95,0.97 3.37,2.3 4.06,4.36 l 2.89,9.49 2.89,-9.49 c 0.68,-2.06 2.11,-3.39 4.06,-4.36 l 4.97,-2.06 z"
   fill="url(#SVGID_7_)"
   id="path23"
   style="fill:url(#SVGID_7_)" />
        <path
   d="m 106.34,53.97 c -1.47,-0.73 -2.65,-1.66 -3.17,-3.21 l -2.18,-7.23 -2.18,7.23 c -0.52,1.56 -1.7,2.48 -3.17,3.21 l -3.64,1.58 3.75,1.56 c 1.47,0.73 2.55,1.73 3.06,3.29 l 2.18,7.16 2.18,-7.16 c 0.52,-1.56 1.59,-2.56 3.06,-3.29 l 3.75,-1.56 z"
   fill="#ffffff"
   id="path24" />
      </g>
    </g>
  </g>
</svg>
